# xmcd
#
# Track frame offsets:
#	150
#	13826
#	28257
#	42354
#	55079
#	67634
#	76843
#	86224
#	99390
#	111601
#	122142
#	134238
#	147363
#	159922
#	170505
#	183936
#	196216
#	209404
#	219504
#	230337
#	247530
#	259473
#	270750
#	280293
#	295391
#	306886
#	314938
#	327621
#	341117
#
# Disc length: 4746 seconds
#
# Revision: 0
# Processed by: cddbd v1.5.2PL0 Copyright (c) Steve Scherf et al.
# Submitted via: EasyCDDAExtractor 16.0.6.1
#
DISCID=be12881d
DTITLE=Various Artist - I saw the light cd1 White spirituals and country gospel
DYEAR=1900
DGENRE=
TTITLE0=Almeda Riddle - Poor Wayfaring Stranger
TTITLE1=Alfred G. Karnes - I Am Bound for the Promised Land
TTITLE2=Carter Family - Can the Circle Be Unbroken (Bye and Bye)
TTITLE3=Chuck Wagon Gang - (We Are Climbing) Jacob's Ladder
TTITLE4=Sons of the Pioneers - Read the Bible Every Day
TTITLE5=Red Allen and Frank Wakefield - Swing Low, Sweet Chariot
TTITLE6=Merle Travis - I Am a Pilgrim
TTITLE7=Hank Williams - Calling You 
TTITLE8=Flatt and Scruggs - God Loves His Children
TTITLE9=Louvin Brothers - The River of Jordan
TTITLE10=Reno and Smiley - Since I've Used My Bible for a Roadmap 
TTITLE11=Roy Acuff - Were You There When They Crucified My Lord
TTITLE12=Monroe Brothers - I Am Ready to Go
TTITLE13=Porter Wagoner - Good Mornin' Neighbor
TTITLE14=Patsy Cline - Life's Railway to Heaven
TTITLE15=Eddy Arnold - I'm Writing a Letter to the Lord
TTITLE16=Stanley Brothers and the Clinch Mountain Boys - Gathering Flowers for t
TTITLE16=he Masters Bouquet
TTITLE17=Joneses - I Don't Care What the World May Do
TTITLE18=Rosemary Clooney - This Ole House
TTITLE19=Montana Slim (Wilf Carter) - What a Friend We Have in Jesus
TTITLE20=Tennessee Ernie Ford - How Great Thou Art
TTITLE21=Jim Reeves - How Long Has It Been
TTITLE22=Elvis Presley - I Relieve
TTITLE23=Sons of the Pioneers with Roy Rogers - Peace in the Valley
TTITLE24=Weavers - Go Tell It on the Mountain
TTITLE25=Statesmen - Your First Day in Heaven
TTITLE26=Delmore Brothers - The Precious Jewel
TTITLE27=Cliff Carlisle - The Devil's Train
TTITLE28=Freddy Fender - Oh Jesus
EXTD=
EXTT0=
EXTT1=
EXTT2=
EXTT3=
EXTT4=
EXTT5=
EXTT6=
EXTT7=
EXTT8=
EXTT9=
EXTT10=
EXTT11=
EXTT12=
EXTT13=
EXTT14=
EXTT15=
EXTT16=
EXTT17=
EXTT18=
EXTT19=
EXTT20=
EXTT21=
EXTT22=
EXTT23=
EXTT24=
EXTT25=
EXTT26=
EXTT27=
EXTT28=
PLAYORDER=
